%TF.GenerationSoftware,KiCad,Pcbnew,10.0.4*%
%TF.CreationDate,2026-07-10T17:15:49+01:00*%
%TF.ProjectId,ZX Max 128 Issue 3 PCB,5a58204d-6178-4203-9132-382049737375,rev?*%
%TF.SameCoordinates,Original*%
%TF.FileFunction,Paste,Top*%
%TF.FilePolarity,Positive*%
%FSLAX46Y46*%
G04 Gerber Fmt 4.6, Leading zero omitted, Abs format (unit mm)*
G04 Created by KiCad (PCBNEW 10.0.4) date 2026-07-10 17:15:49*
%MOMM*%
%LPD*%
G01*
G04 APERTURE LIST*
%ADD10R,0.558800X1.981200*%
%ADD11R,1.200000X2.200000*%
%ADD12R,3.500000X2.200000*%
%ADD13R,2.000000X1.000000*%
%ADD14R,1.000000X2.000000*%
G04 APERTURE END LIST*
D10*
%TO.C,U11*%
X33327975Y-62128400D03*
X34597975Y-62128400D03*
X35867975Y-62128400D03*
X37137975Y-62128400D03*
X38407975Y-62128400D03*
X39677975Y-62128400D03*
X40947975Y-62128400D03*
X42217975Y-62128400D03*
X42217975Y-52755800D03*
X40947975Y-52755800D03*
X39677975Y-52755800D03*
X38407975Y-52755800D03*
X37137975Y-52755800D03*
X35867975Y-52755800D03*
X34597975Y-52755800D03*
X33327975Y-52755800D03*
%TD*%
D11*
%TO.C,U12*%
X30989300Y-99305250D03*
X28689300Y-99305250D03*
X26389300Y-99305250D03*
D12*
X28689300Y-105505250D03*
%TD*%
D13*
%TO.C,U15*%
X48346500Y-111875600D03*
X48346500Y-109875600D03*
X48346500Y-107875600D03*
X48346500Y-105875600D03*
X48346500Y-103875600D03*
X48346500Y-101875600D03*
X48346500Y-99875600D03*
X48346500Y-97875600D03*
D14*
X45846500Y-96875600D03*
X43846500Y-96875600D03*
X41846500Y-96875600D03*
X39846500Y-96875600D03*
X37846500Y-96875600D03*
X35846500Y-96875600D03*
D13*
X33346500Y-97875600D03*
X33346500Y-99875600D03*
X33346500Y-101875600D03*
X33346500Y-103875600D03*
X33346500Y-105875600D03*
X33346500Y-107875600D03*
X33346500Y-109875600D03*
X33346500Y-111875600D03*
%TD*%
M02*
