M48
; DRILL file KiCad 10.0.4 date 2026-07-10T17:15:33
; FORMAT={-:-/ absolute / metric / decimal}
; #@! TF.CreationDate,2026-07-10T17:15:33+01:00
; #@! TF.GenerationSoftware,Kicad,Pcbnew,10.0.4
; #@! TF.FileFunction,Plated,1,2,PTH
FMAT,2
METRIC
; #@! TA.AperFunction,Plated,PTH,ViaDrill
T1C0.300
; #@! TA.AperFunction,Plated,PTH,ComponentDrill
T2C0.700
; #@! TA.AperFunction,Plated,PTH,ComponentDrill
T3C0.730
; #@! TA.AperFunction,Plated,PTH,ComponentDrill
T4C0.759
; #@! TA.AperFunction,Plated,PTH,ComponentDrill
T5C0.762
; #@! TA.AperFunction,Plated,PTH,ComponentDrill
T6C0.780
; #@! TA.AperFunction,Plated,PTH,ComponentDrill
T7C0.800
; #@! TA.AperFunction,Plated,PTH,ComponentDrill
T8C0.813
; #@! TA.AperFunction,Plated,PTH,ComponentDrill
T9C0.820
; #@! TA.AperFunction,Plated,PTH,ComponentDrill
T10C0.838
; #@! TA.AperFunction,Plated,PTH,ComponentDrill
T11C0.864
; #@! TA.AperFunction,Plated,PTH,ComponentDrill
T12C0.889
; #@! TA.AperFunction,Plated,PTH,ComponentDrill
T13C0.960
; #@! TA.AperFunction,Plated,PTH,ComponentDrill
T14C0.991
; #@! TA.AperFunction,Plated,PTH,ComponentDrill
T15C1.000
; #@! TA.AperFunction,Plated,PTH,ComponentDrill
T16C1.016
; #@! TA.AperFunction,Plated,PTH,ComponentDrill
T17C1.020
; #@! TA.AperFunction,Plated,PTH,ComponentDrill
T18C1.070
; #@! TA.AperFunction,Plated,PTH,ComponentDrill
T19C1.100
; #@! TA.AperFunction,Plated,PTH,ComponentDrill
T20C1.295
; #@! TA.AperFunction,Plated,PTH,ComponentDrill
T21C1.400
; #@! TA.AperFunction,Plated,PTH,ComponentDrill
T22C2.300
%
G90
G05
T1
X33.39Y-51.48
X36.56Y-82.92
X44.66Y-75.96
X49.76Y-79.24
X49.76Y-84.23
X51.08Y-58.5
X53.54Y-67.79
X57.91Y-62.85
X64.28Y-43.29
X67.43Y-94.93
X69.26Y-59.72
X78.74Y-81.73
X78.76Y-104.9
X81.23Y-80.62
X83.73Y-70.46
X83.8Y-98.78
X84.99Y-47.01
X84.99Y-54.61
X86.28Y-72.85
X87.5Y-109.88
X88.72Y-79.26
X88.75Y-49.11
X91.26Y-77.85
X93.79Y-71.52
X93.81Y-76.67
X95.13Y-74.11
X96.25Y-67.8
X99.46Y-49.6
X102.64Y-109.41
X108.18Y-77.32
X108.24Y-48.96
X108.96Y-52.75
X108.98Y-56.51
X109.47Y-111.84
X110.73Y-104.88
X112.05Y-112.34
X112.07Y-43.23
X113.29Y-98.63
X114.47Y-94.82
X114.54Y-97.45
X117.08Y-44.55
X119.57Y-94.2
X122.1Y-104.88
X122.13Y-112.48
X128.427Y-112.519
X132.83Y-90.47
X132.85Y-77.27
X133.55Y-79.19
X134.67Y-53.42
X135.74Y-59.05
X135.74Y-69.2
X135.93Y-104.26
X135.94Y-44.58
X137.09Y-82.31
X137.15Y-41.38
X138.5Y-103.62
X138.51Y-62.7
X138.51Y-71.54
X139.71Y-52.75
X139.71Y-83.55
X139.76Y-45.89
X140.97Y-55.25
X140.973Y-102.333
X140.99Y-38.34
X142.27Y-84.84
X143.46Y-82.26
X143.5Y-38.4
X143.5Y-52.79
X143.57Y-55.87
X144.72Y-54.02
X145.36Y-74.78
X146.02Y-84.18
X146.03Y-38.29
X146.03Y-53.36
X147.25Y-49.03
X147.9Y-55.25
X147.9Y-60.43
X148.5Y-43.89
X148.53Y-52.76
X148.53Y-67.91
X149.76Y-82.91
X150.34Y-42.04
X151.03Y-40.77
X151.03Y-85.435
X151.64Y-39.54
X152.23Y-81.735
X152.99Y-42.7
X153.51Y-38.23
X153.56Y-84.11
X155.41Y-82.26
X155.45Y-52.67
X156.07Y-46.57
X156.08Y-79.14
X157.27Y-50.18
X157.32Y-89.23
X158.61Y-45.14
X161.03Y-41.42
X161.03Y-90.6
X161.16Y-85.53
X161.72Y-45.25
X161.81Y-110.56
X162.29Y-74.216
X162.31Y-48.0
X162.39Y-80.36
X162.41Y-63.98
X163.61Y-48.99
X163.61Y-76.6
X163.62Y-38.31
X163.65Y-80.4
X163.65Y-84.24
X164.63Y-71.61
X165.41Y-87.98
X165.503Y-75.39
X165.52Y-47.56
X165.54Y-79.11
X166.1Y-82.96
X166.14Y-86.78
X166.145Y-72.88
X167.94Y-56.42
X167.94Y-60.29
X168.62Y-66.63
X168.67Y-38.22
X168.68Y-89.3
X169.253Y-69.136
X169.26Y-75.43
X169.28Y-81.71
X170.5Y-104.95
X171.12Y-38.25
X171.15Y-61.52
X171.23Y-92.98
X171.69Y-98.09
X171.77Y-91.78
X171.79Y-95.49
X171.81Y-103.02
X173.08Y-100.6
X173.1Y-98.09
X173.69Y-38.29
X174.75Y-46.51
X176.12Y-41.42
X176.84Y-40.12
X177.43Y-103.71
X177.49Y-41.34
X178.02Y-42.72
X178.66Y-39.51
X178.68Y-38.275
X179.35Y-65.28
X179.7Y-50.69
X182.53Y-38.27
X183.13Y-77.86
X183.71Y-106.17
X184.31Y-38.29
X184.43Y-103.04
X184.99Y-101.8
X185.6Y-42.65
X186.84Y-77.93
X186.87Y-72.84
X186.91Y-62.85
X186.93Y-55.24
X187.47Y-42.67
X187.54Y-38.35
X188.09Y-67.86
X188.14Y-99.34
X188.71Y-41.33
X188.73Y-55.23
X188.78Y-66.03
X189.4Y-56.45
X189.49Y-46.46
X189.56Y-38.22
X190.0Y-66.65
X190.078Y-52.81
X191.246Y-60.33
X191.27Y-74.12
X191.28Y-98.69
X192.49Y-81.66
X192.58Y-41.97
X193.157Y-62.77
X193.78Y-81.73
X193.783Y-65.21
X193.83Y-71.61
X194.469Y-67.9
X194.64Y-38.27
X197.15Y-38.27
X198.203Y-57.68
X199.4Y-44.58
X199.446Y-57.784
X201.29Y-38.41
X201.36Y-42.06
X203.23Y-72.81
X203.83Y-38.21
X203.867Y-60.3
X204.45Y-45.18
X205.07Y-55.21
X205.7Y-43.29
X205.75Y-51.52
X206.36Y-74.17
X206.38Y-38.23
X206.385Y-71.71
X206.43Y-102.35
X206.44Y-50.25
X206.99Y-56.48
X207.0Y-91.1
X207.02Y-42.69
X207.63Y-90.42
X208.84Y-41.36
X210.16Y-65.27
X210.76Y-52.81
T2
X26.486Y-94.409
X26.486Y-96.409
X28.376Y-62.087
X29.601Y-95.723
X30.876Y-62.087
X31.601Y-95.723
X94.41Y-43.313
X96.91Y-43.313
X99.518Y-43.291
X102.018Y-43.291
X179.398Y-104.248
X181.898Y-104.248
X222.069Y-46.467
X222.069Y-48.967
X226.514Y-46.486
X226.514Y-48.986
T3
X46.615Y-60.309
X46.615Y-67.846
X49.13Y-60.369
X49.13Y-67.906
X51.572Y-60.309
X51.572Y-67.846
X52.039Y-70.323
X52.039Y-72.863
X52.039Y-75.403
X52.039Y-77.943
X52.039Y-80.483
X52.039Y-83.023
X52.039Y-85.563
X59.979Y-70.323
X59.979Y-72.863
X59.979Y-75.403
X59.979Y-77.943
X59.979Y-80.483
X59.979Y-83.023
X59.979Y-85.563
X76.806Y-42.656
X76.806Y-50.193
X82.521Y-101.223
X82.521Y-108.76
X86.141Y-100.197
X86.141Y-108.137
X88.681Y-100.197
X88.681Y-108.137
X91.221Y-100.197
X91.221Y-108.137
X93.761Y-100.197
X93.761Y-108.137
X96.301Y-100.197
X96.301Y-108.137
X98.841Y-100.197
X98.841Y-108.137
X101.381Y-100.197
X101.381Y-108.137
X103.921Y-100.197
X103.921Y-108.137
X104.546Y-38.919
X104.546Y-46.456
X105.797Y-110.63
X107.017Y-38.878
X107.017Y-46.415
X113.334Y-110.63
X128.427Y-110.671
X133.439Y-40.2
X133.439Y-47.737
X135.909Y-40.187
X135.909Y-47.724
X135.964Y-110.671
X190.068Y-93.056
X190.068Y-100.593
X192.649Y-93.056
X192.649Y-100.593
X195.116Y-93.104
X195.116Y-100.641
X197.609Y-93.116
X197.609Y-100.653
X200.206Y-93.031
X200.206Y-100.568
X202.676Y-93.072
X202.676Y-100.609
X205.229Y-93.116
X205.229Y-100.653
X207.55Y-92.985
X207.55Y-100.522
T4
X180.927Y-53.908
X180.927Y-56.448
X180.927Y-58.988
X180.927Y-61.528
X180.927Y-64.068
X180.927Y-66.608
X180.927Y-69.148
X180.927Y-71.688
X180.927Y-74.228
X180.927Y-76.768
X180.927Y-79.308
X180.927Y-81.848
X180.927Y-84.388
X180.927Y-86.928
X196.485Y-53.908
X196.485Y-56.448
X196.485Y-58.988
X196.485Y-61.528
X196.485Y-64.068
X196.485Y-66.608
X196.485Y-69.148
X196.485Y-71.688
X196.485Y-74.228
X196.485Y-76.768
X196.485Y-79.308
X196.485Y-81.848
X196.485Y-84.388
X196.485Y-86.928
T5
X29.67Y-49.569
X29.67Y-52.069
X42.275Y-46.388
X42.275Y-48.888
X46.651Y-47.704
X46.687Y-52.727
X49.151Y-47.704
X49.187Y-52.727
T6
X212.232Y-39.477
X212.232Y-44.577
X220.482Y-39.477
X220.482Y-44.577
T7
X30.915Y-66.601
X30.915Y-69.101
X34.652Y-66.592
X34.652Y-71.472
X35.325Y-49.625
X37.825Y-49.625
X38.443Y-65.311
X38.443Y-67.811
X41.018Y-65.286
X41.018Y-67.786
X43.488Y-65.29
X43.488Y-67.79
X46.658Y-56.474
X49.158Y-56.474
X53.456Y-90.487
X58.336Y-90.487
X62.42Y-90.495
X62.42Y-92.995
X64.935Y-67.851
X64.935Y-70.351
X65.456Y-79.192
X65.456Y-81.692
X72.443Y-57.087
X74.896Y-96.136
X74.943Y-57.087
X76.87Y-37.06
X76.87Y-39.56
X77.396Y-96.136
X88.144Y-37.015
X88.144Y-39.515
X88.19Y-42.608
X90.65Y-55.27
X90.69Y-42.608
X93.15Y-55.27
X94.365Y-47.669
X96.865Y-47.669
X99.563Y-47.736
X102.063Y-47.736
X104.45Y-90.56
X104.45Y-93.06
X104.515Y-69.127
X104.515Y-71.627
X108.147Y-93.015
X108.147Y-108.255
X110.687Y-93.015
X110.687Y-108.255
X113.227Y-93.015
X113.227Y-108.255
X115.767Y-93.015
X115.767Y-108.255
X118.307Y-93.015
X118.307Y-108.255
X120.847Y-93.015
X120.847Y-108.255
X123.387Y-93.015
X123.387Y-108.255
X125.927Y-93.015
X125.927Y-108.255
X128.467Y-93.015
X128.467Y-108.255
X129.642Y-47.718
X129.642Y-51.418
X131.007Y-93.015
X131.007Y-108.255
X133.547Y-93.015
X133.547Y-108.255
X136.087Y-93.015
X136.087Y-108.255
X138.627Y-93.015
X138.627Y-108.255
X141.167Y-93.015
X141.167Y-108.255
X143.707Y-93.015
X143.707Y-108.255
X146.247Y-93.015
X146.247Y-108.255
X148.787Y-93.015
X148.787Y-108.255
X151.327Y-93.015
X151.327Y-108.255
X153.867Y-93.015
X153.867Y-108.255
X156.407Y-93.015
X156.407Y-108.255
X157.299Y-74.112
X157.299Y-76.612
X159.734Y-51.356
X159.734Y-53.896
X159.734Y-56.436
X159.734Y-58.976
X159.734Y-61.516
X159.734Y-64.056
X159.734Y-66.596
X159.734Y-69.136
X159.734Y-71.676
X159.734Y-74.216
X159.734Y-76.756
X159.734Y-79.296
X159.734Y-81.836
X159.734Y-84.376
X159.734Y-86.916
X159.734Y-89.456
X159.734Y-91.996
X159.734Y-94.536
X159.734Y-97.076
X159.734Y-99.616
X174.974Y-51.356
X174.974Y-53.896
X174.974Y-56.436
X174.974Y-58.976
X174.974Y-61.516
X174.974Y-64.056
X174.974Y-66.596
X174.974Y-69.136
X174.974Y-71.676
X174.974Y-74.216
X174.974Y-76.756
X174.974Y-79.296
X174.974Y-81.836
X174.974Y-84.376
X174.974Y-86.916
X174.974Y-89.456
X174.974Y-91.996
X174.974Y-94.536
X174.974Y-97.076
X174.974Y-99.616
X196.39Y-47.759
X196.39Y-50.259
T8
X79.34Y-47.702
X79.34Y-50.202
T9
X134.639Y-89.271
X137.179Y-89.271
X139.719Y-89.271
X142.259Y-89.271
X144.799Y-89.271
X147.339Y-89.271
X149.879Y-89.271
X152.419Y-89.271
X154.959Y-89.271
T10
X111.96Y-51.21
X111.96Y-53.75
X111.96Y-56.29
X111.96Y-58.83
X111.96Y-61.37
X111.96Y-63.91
X111.96Y-66.45
X111.96Y-68.99
X111.96Y-71.53
X111.96Y-74.07
X111.96Y-76.61
X111.96Y-79.15
X111.96Y-81.69
X111.96Y-84.23
X111.96Y-86.77
X111.96Y-89.31
X127.2Y-51.21
X127.2Y-53.75
X127.2Y-56.29
X127.2Y-58.83
X127.2Y-61.37
X127.2Y-63.91
X127.2Y-66.45
X127.2Y-68.99
X127.2Y-71.53
X127.2Y-74.07
X127.2Y-76.61
X127.2Y-79.15
X127.2Y-81.69
X127.2Y-84.23
X127.2Y-86.77
X127.2Y-89.31
X201.3Y-48.65
X201.3Y-51.19
X201.3Y-53.73
X201.3Y-56.27
X201.3Y-58.81
X201.3Y-61.35
X201.3Y-63.89
X201.3Y-66.43
X201.3Y-68.97
X201.3Y-71.51
X201.3Y-74.05
X201.3Y-76.59
X201.3Y-79.13
X201.3Y-81.67
X201.3Y-84.21
X201.3Y-86.75
X208.92Y-48.7
X208.92Y-51.24
X208.92Y-53.78
X208.92Y-56.32
X208.92Y-58.86
X208.92Y-61.4
X208.92Y-63.94
X208.92Y-66.48
X208.92Y-69.02
X208.92Y-71.56
X208.92Y-74.1
X208.92Y-76.64
X208.92Y-79.18
X208.92Y-81.72
X208.92Y-84.26
X208.92Y-86.8
X216.54Y-48.65
X216.54Y-51.19
X216.54Y-53.73
X216.54Y-56.27
X216.54Y-58.81
X216.54Y-61.35
X216.54Y-63.89
X216.54Y-66.43
X216.54Y-68.97
X216.54Y-71.51
X216.54Y-74.05
X216.54Y-76.59
X216.54Y-79.13
X216.54Y-81.67
X216.54Y-84.21
X216.54Y-86.75
T11
X54.797Y-104.318
X57.337Y-104.318
X59.877Y-104.318
X62.417Y-104.318
X64.957Y-104.318
T12
X29.651Y-46.447
X38.348Y-90.453
X38.376Y-85.395
X38.391Y-82.953
X38.417Y-87.976
X38.458Y-77.927
X38.484Y-70.323
X38.484Y-80.407
X38.493Y-72.869
X38.493Y-75.381
X38.551Y-46.447
X47.248Y-90.453
X47.276Y-85.395
X47.291Y-82.953
X47.317Y-87.976
X47.358Y-77.927
X47.384Y-70.323
X47.384Y-80.407
X47.393Y-72.869
X47.393Y-75.381
X51.467Y-98.095
X51.542Y-95.409
X52.889Y-42.7
X52.889Y-51.6
X55.289Y-54.026
X55.292Y-46.403
X55.292Y-51.578
X55.292Y-56.474
X55.293Y-48.936
X55.324Y-58.985
X55.346Y-61.582
X55.356Y-64.202
X60.367Y-98.095
X60.442Y-95.409
X62.316Y-67.681
X62.316Y-76.581
X62.455Y-79.035
X62.455Y-87.935
X64.189Y-54.026
X64.192Y-46.403
X64.192Y-51.578
X64.192Y-56.474
X64.193Y-48.936
X64.224Y-58.985
X64.246Y-61.582
X64.256Y-64.202
X65.491Y-86.57
X65.491Y-95.47
X69.1Y-54.004
X69.844Y-111.188
X69.856Y-99.926
X69.856Y-108.826
X72.409Y-99.882
X72.409Y-108.782
X74.273Y-42.583
X74.273Y-51.483
X74.879Y-99.926
X74.879Y-108.826
X77.435Y-99.904
X77.435Y-108.804
X78.0Y-54.004
X78.744Y-111.188
X79.902Y-99.913
X79.902Y-108.813
X81.747Y-45.222
X81.757Y-47.584
X81.766Y-52.822
X81.788Y-50.162
X86.227Y-111.293
X90.647Y-45.222
X90.657Y-47.584
X90.666Y-52.822
X90.688Y-50.162
X93.016Y-50.21
X93.018Y-52.822
X95.127Y-111.293
X101.916Y-50.21
X101.918Y-52.822
X109.487Y-38.801
X109.487Y-47.701
X112.084Y-38.778
X112.084Y-47.678
X114.487Y-38.834
X114.487Y-47.734
X115.674Y-110.63
X117.173Y-38.76
X117.173Y-47.66
X119.555Y-38.748
X119.555Y-47.648
X122.174Y-38.728
X122.174Y-47.628
X124.574Y-110.63
X124.622Y-38.748
X124.622Y-47.648
X127.156Y-38.748
X127.156Y-47.648
X132.07Y-60.258
X132.083Y-57.734
X132.099Y-70.377
X132.099Y-72.819
X132.112Y-75.428
X132.128Y-65.297
X132.128Y-67.85
X132.153Y-62.868
X134.639Y-77.752
X134.639Y-86.652
X137.131Y-77.708
X137.131Y-86.608
X139.465Y-110.719
X139.729Y-77.708
X139.729Y-86.608
X140.97Y-60.258
X140.983Y-57.734
X140.999Y-70.377
X140.999Y-72.819
X141.012Y-75.428
X141.028Y-65.297
X141.028Y-67.85
X141.053Y-62.868
X142.326Y-77.709
X142.326Y-86.609
X144.688Y-77.74
X144.688Y-86.64
X145.355Y-72.796
X145.377Y-57.769
X145.377Y-60.258
X145.377Y-65.37
X145.377Y-67.882
X145.377Y-70.329
X145.396Y-62.855
X147.288Y-77.718
X147.288Y-86.618
X148.365Y-110.719
X149.755Y-77.699
X149.755Y-86.599
X152.203Y-77.676
X152.203Y-86.576
X154.255Y-72.796
X154.277Y-57.769
X154.277Y-60.258
X154.277Y-65.37
X154.277Y-67.882
X154.277Y-70.329
X154.296Y-62.855
X159.981Y-102.422
X168.881Y-102.422
X177.416Y-97.977
X177.429Y-95.51
X177.451Y-93.04
X177.47Y-100.533
X177.492Y-90.421
X186.316Y-97.977
X186.329Y-95.51
X186.351Y-93.04
X186.37Y-100.533
X186.392Y-90.421
T13
X71.217Y-44.469
X71.217Y-47.069
X71.217Y-49.669
X213.236Y-106.89
X213.236Y-109.49
X213.236Y-112.09
T14
X232.794Y-63.702
X232.794Y-68.202
T15
X181.159Y-46.412
X181.159Y-48.952
X183.699Y-46.412
X183.699Y-48.952
X225.196Y-57.759
X227.736Y-57.759
X230.276Y-57.759
T16
X189.951Y-104.219
X192.491Y-104.219
X195.031Y-104.219
X197.571Y-104.219
X200.111Y-104.219
X202.651Y-104.219
X205.191Y-104.219
X207.731Y-104.219
T17
X29.016Y-81.712
X29.016Y-84.252
X29.016Y-86.792
X29.016Y-89.332
X29.016Y-91.872
X31.556Y-81.712
X31.556Y-84.252
X31.556Y-86.792
X31.556Y-89.332
X31.556Y-91.872
T18
X217.005Y-111.931
X219.545Y-111.931
T19
X33.306Y-38.932
X33.306Y-41.432
X35.206Y-41.432
X35.906Y-38.932
X37.206Y-41.432
X37.906Y-38.932
X39.206Y-41.432
X41.106Y-38.932
X41.106Y-41.432
X69.76Y-64.23
X69.76Y-66.77
X69.76Y-69.31
X69.76Y-71.85
X69.76Y-74.39
X69.76Y-76.93
X69.76Y-79.47
X69.76Y-82.01
X69.76Y-84.55
X69.76Y-87.09
X69.76Y-89.63
X72.3Y-61.69
X72.3Y-64.23
X72.3Y-66.77
X72.3Y-69.31
X72.3Y-71.85
X72.3Y-74.39
X72.3Y-76.93
X72.3Y-79.47
X72.3Y-82.01
X72.3Y-84.55
X72.3Y-87.09
X72.3Y-89.63
X72.3Y-92.17
X74.84Y-61.69
X74.84Y-64.23
X74.84Y-89.63
X74.84Y-92.17
X77.38Y-61.69
X77.38Y-64.23
X77.38Y-89.63
X77.38Y-92.17
X79.92Y-61.69
X79.92Y-64.23
X79.92Y-89.63
X79.92Y-92.17
X82.46Y-61.69
X82.46Y-64.23
X82.46Y-89.63
X82.46Y-92.17
X85.0Y-61.69
X85.0Y-64.23
X85.0Y-89.63
X85.0Y-92.17
X87.54Y-61.69
X87.54Y-64.23
X87.54Y-89.63
X87.54Y-92.17
X90.08Y-61.69
X90.08Y-64.23
X90.08Y-89.63
X90.08Y-92.17
X92.62Y-61.69
X92.62Y-64.23
X92.62Y-89.63
X92.62Y-92.17
X95.16Y-61.69
X95.16Y-64.23
X95.16Y-89.63
X95.16Y-92.17
X97.7Y-61.69
X97.7Y-64.23
X97.7Y-66.77
X97.7Y-69.31
X97.7Y-71.85
X97.7Y-74.39
X97.7Y-76.93
X97.7Y-79.47
X97.7Y-82.01
X97.7Y-84.55
X97.7Y-87.09
X97.7Y-89.63
X97.7Y-92.17
X100.24Y-64.23
X100.24Y-66.77
X100.24Y-69.31
X100.24Y-71.85
X100.24Y-74.39
X100.24Y-76.93
X100.24Y-79.47
X100.24Y-82.01
X100.24Y-84.55
X100.24Y-87.09
X100.24Y-89.63
T20
X230.304Y-62.447
X230.304Y-69.457
T21
X218.319Y-98.479
X227.819Y-98.429
T22
X29.956Y-35.932
X37.206Y-35.132
X44.456Y-35.932
T2
G00X79.318Y-32.881
M15
G01X79.318Y-33.681
M16
G05
G00X79.668Y-40.881
M15
G01X79.668Y-41.681
M16
G05
G00X82.118Y-42.181
M15
G01X82.918Y-42.181
M16
G05
G00X85.368Y-40.881
M15
G01X85.368Y-41.681
M16
G05
G00X85.718Y-32.881
M15
G01X85.718Y-33.681
M16
G05
T7
G00X91.537Y-39.197
M15
G01X91.537Y-38.497
M16
G05
G00X94.037Y-39.197
M15
G01X94.037Y-38.497
M16
G05
G00X96.887Y-33.847
M15
G01X96.187Y-33.847
M16
G05
G00X99.037Y-39.197
M15
G01X99.037Y-38.497
M16
G05
G00X101.537Y-39.197
M15
G01X101.537Y-38.497
M16
G05
T15
G00X222.887Y-40.605
M15
G01X222.887Y-38.605
M16
G05
G00X226.587Y-36.605
M15
G01X228.587Y-36.605
M16
G05
G00X226.337Y-42.605
M15
G01X228.837Y-42.605
M16
G05
M30
